<svg id="Capa_1" enable-background="new 0 0 513.001 513.001" height="512" viewBox="0 0 513.001 513.001" width="512" xmlns="http://www.w3.org/2000/svg"><g><path d="m380.43 147.07c-3.839 0-7.678-1.464-10.607-4.393-5.858-5.858-5.858-15.355 0-21.213l53.431-53.43c5.858-5.858 15.357-5.857 21.213 0 5.858 5.858 5.858 15.355 0 21.213l-53.431 53.43c-2.928 2.928-6.768 4.393-10.606 4.393z" fill="#ebf3ff"/><path d="m370.086 142.914c2.895 2.763 6.615 4.156 10.344 4.156 3.838 0 7.678-1.465 10.606-4.393l53.431-53.43c5.773-5.773 5.845-15.075.237-20.95z" fill="#d7e8ff"/><path d="m508.607 4.894c-4.047-4.047-10.043-5.438-15.459-3.587l-94.854 32.426c-4.899 1.675-8.589 5.759-9.759 10.803-1.171 5.044.343 10.335 4.005 13.997l62.427 62.426c2.845 2.845 6.674 4.394 10.606 4.394 1.129 0 2.266-.127 3.391-.388 5.044-1.17 9.128-4.86 10.803-9.759l32.427-94.853c1.851-5.416.46-11.413-3.587-15.459z" fill="#ff80a9"/><path d="m508.607 4.894c-.084-.084-.173-.159-.259-.241l-84.844 84.844 31.463 31.463c2.845 2.845 6.674 4.394 10.606 4.394 1.129 0 2.266-.127 3.391-.388 5.044-1.17 9.128-4.86 10.803-9.759l32.427-94.853c1.851-5.417.46-11.414-3.587-15.46z" fill="#ff3c7d"/><path d="m63.234 416.104-32.784-401.823-15.617-3.697-14.283 6.136 32.584 399.384z" fill="#ebf3ff"/><path d="m498.736 482.551-401.839-33.198v30.126c113.699 9.449 397.647 33.021 400.62 33.021l5.984-14.417z" fill="#d7e8ff"/><path d="m122.5 375.221h-73.86c-3.979 0-7.794 1.58-10.606 4.393l-33.64 33.64c-5.858 5.858-5.858 15.355 0 21.213l73.64 73.64c2.929 2.928 6.767 4.393 10.606 4.393 3.823 0 7.646-1.453 10.572-4.359l33.86-33.64c2.834-2.816 4.428-6.646 4.428-10.641v-73.64c0-8.283-6.716-14.999-15-14.999z" fill="#ff80a9"/><path d="m41.463 471.537 36.57 36.57c2.929 2.928 6.767 4.393 10.606 4.393 3.823 0 7.646-1.453 10.572-4.359l33.86-33.64c2.834-2.816 4.428-6.646 4.428-10.641v-73.64c0-4.071-1.628-7.758-4.261-10.46z" fill="#ff3c7d"/><path d="m.5 493.711c-.646 2.484-.646 5.095 0 7.578z" fill="#ebf3ff"/><path d="m15 512.5c-3.839 0-7.678-1.464-10.606-4.393-5.858-5.858-5.858-15.355 0-21.213l301.79-301.791c5.857-5.857 15.355-5.858 21.213 0s5.858 15.355 0 21.213l-301.79 301.79c-2.929 2.93-6.768 4.394-10.607 4.394z" fill="#ebf3ff"/><path d="m4.656 508.344c2.895 2.763 6.616 4.156 10.344 4.156 3.839 0 7.678-1.465 10.606-4.393l301.79-301.79c5.773-5.773 5.845-15.075.237-20.95z" fill="#d7e8ff"/><path d="m346.12 103.239c-38.082-38.082-79.314-62.777-126.054-75.497-40.076-10.906-79.115-11.81-118.91-11.81l-14.423.01c-24.724 0-49.881-8.98-60.623-12.814-5.207-1.858-7.363-2.628-10.471-2.628-6.159 0-11.652 3.653-13.993 9.307-2.347 5.665-1.018 12.171 3.387 16.575 32.97 32.971 71.753 45.866 112.813 59.518 50.026 16.633 91.028 23.347 146.041 78.361l31.94 10.486 50.293-50.294c5.859-5.859 5.859-15.356 0-21.214z" fill="#ffed6a"/><path d="m509.873 486.894c-3.835-10.742-12.815-35.9-12.816-60.627l.005-7.161c.082-77.223.176-164.749-87.303-252.226-5.857-5.858-15.355-5.858-21.213 0l-50.293 50.293 10.485 31.941c55.014 55.014 61.729 96.015 78.361 146.041 13.652 41.06 26.548 79.842 59.519 112.813 2.917 2.918 6.75 4.527 10.793 4.533h.021c4.873 0 9.488-2.391 12.299-6.373 4.654-6.594 2.563-12.452.142-19.234z" fill="#ffb454"/><path d="m423.107 153.533-63.641-63.639c-5.857-5.858-15.355-5.857-21.213 0l-74.366 74.367 84.852 84.853 74.368-74.367c2.814-2.813 4.394-6.628 4.394-10.607-.001-3.979-1.581-7.794-4.394-10.607z" fill="#5e54ac"/><path d="m391.287 121.714-84.975 84.974 42.426 42.426 74.368-74.367c2.814-2.813 4.394-6.628 4.394-10.607 0-3.978-1.58-7.794-4.394-10.607z" fill="#453d81"/></g></svg>